Coordinates
version=1
nRows=17
nColumns=40
inDegrees=yes

Units are S.I. units (second, meters, Newtons, ...)
If the header above contains a line with 'inDegrees', this indicates whether rotational values are in degrees (yes) or radians (no).

endheader
time	pelvis_tilt	pelvis_list	pelvis_rotation	pelvis_tx	pelvis_ty	pelvis_tz	hip_flexion_r	hip_adduction_r	hip_rotation_r	knee_angle_r	knee_angle_r_beta	ankle_angle_r	subtalar_angle_r	mtp_angle_r	hip_flexion_l	hip_adduction_l	hip_rotation_l	knee_angle_l	knee_angle_l_beta	ankle_angle_l	subtalar_angle_l	mtp_angle_l	lumbar_extension	lumbar_bending	lumbar_rotation	arm_flex_r	arm_add_r	arm_rot_r	elbow_flex_r	pro_sup_r	wrist_flex_r	wrist_dev_r	arm_flex_l	arm_add_l	arm_rot_l	elbow_flex_l	pro_sup_l	wrist_flex_l	wrist_dev_l
      3.10000000	     -0.47743730	      0.67364223	      2.76232024	     -0.22185612	      1.04753743	     -1.01041278	     -0.21316374	    -14.01936695	     -6.36257665	     70.12967846	      1.22399379	     -4.08079480	      0.00000000	      0.00000000	      4.28598767	      4.13694802	     -1.07368318	     12.46543856	      0.21756295	     -1.20736748	      0.00000000	      0.00000000	     -6.07133211	     -4.90357665	     -6.43682642	     87.67699420	    -12.79698401	     65.85133147	     62.53494662	     84.26405046	      0.00000000	      0.00000000	     89.69253586	    -27.38387035	     65.24096447	     68.07481610	     80.65014796	      0.00000000	      0.00000000
      3.10500000	     -0.49020958	      0.62861351	      2.75939658	     -0.22210686	      1.04747874	     -1.01037569	     -0.25714576	    -13.99917319	     -6.40644532	     69.98142666	      1.22140631	     -4.06462227	      0.00000000	      0.00000000	      4.37890150	      4.09122696	     -1.09846823	     12.60283083	      0.21996089	     -1.15517419	      0.00000000	      0.00000000	     -6.11058233	     -4.87363029	     -6.44362893	     87.72187714	    -12.74370758	     65.83615220	     62.46402227	     84.20442762	      0.00000000	      0.00000000	     89.69216993	    -27.38867665	     65.21408337	     68.04487486	     80.37727729	      0.00000000	      0.00000000
      3.11000000	     -0.50709172	      0.58923036	      2.70128377	     -0.22237118	      1.04737939	     -1.01023380	     -0.24999945	    -13.96573297	     -6.36881177	     69.86992781	      1.21946029	     -4.10918007	      0.00000000	      0.00000000	      4.47325522	      4.04106972	     -1.17853340	     12.71825909	      0.22197550	     -1.07279213	      0.00000000	      0.00000000	     -6.12743784	     -4.86850196	     -6.36635291	     87.70821297	    -12.75404503	     65.75610514	     62.47459443	     84.36840278	      0.00000000	      0.00000000	     89.69333810	    -27.33605404	     65.17276262	     67.96966830	     80.26207852	      0.00000000	      0.00000000
      3.11500000	     -0.72465673	      0.37423366	      2.87107746	     -0.22314154	      1.04695537	     -1.01012842	     -0.02896411	    -13.72300442	     -6.52173876	     69.84152579	      1.21896458	     -4.09586425	      0.00000000	      0.00000000	      4.94249920	      3.81942885	     -1.01293492	     13.10874601	      0.22879078	     -0.83383482	      0.00000000	      0.00000000	     -5.97859054	     -4.66650067	     -6.54701931	     87.77539551	    -12.65010127	     65.79461881	     62.32723360	     84.09851253	      0.00000000	      0.00000000	     89.69838440	    -27.38467259	     65.01922657	     67.95613909	     81.36117810	      0.00000000	      0.00000000
      3.12000000	     -0.63870224	      0.49860687	      2.60375416	     -0.22301217	      1.04708172	     -1.01002421	     -0.11517134	    -13.89016681	     -6.27963094	     69.72295806	      1.21689518	     -4.11779881	      0.00000000	      0.00000000	      4.80314575	      3.94603555	     -1.34143680	     13.02122888	      0.22726332	     -1.12955345	      0.00000000	      0.00000000	     -6.07754775	     -4.82728888	     -6.28285629	     87.75148353	    -12.68103109	     65.75601856	     62.37079653	     84.10340491	      0.00000000	      0.00000000	     89.69766811	    -27.35337652	     65.02374596	     67.93767901	     81.10654906	      0.00000000	      0.00000000
      3.12500000	     -0.83645653	      0.23968895	      2.79195050	     -0.22386238	      1.04671513	     -1.00987665	      0.07978053	    -13.57828020	     -6.43740506	     69.66168260	      1.21582572	     -4.19496078	      0.00000000	      0.00000000	      5.26990724	      3.66402017	     -1.20036337	     13.43526218	      0.23448956	     -0.96165073	      0.00000000	      0.00000000	     -5.97093753	     -4.58579471	     -6.45689987	     87.79422057	    -12.63849847	     65.69439907	     62.33426965	     84.13322913	      0.00000000	      0.00000000	     89.70049721	    -27.36221365	     64.93588116	     67.95455045	     81.22117425	      0.00000000	      0.00000000
      3.13000000	     -0.85967830	      0.22517872	      2.79106783	     -0.22418126	      1.04659072	     -1.00981607	      0.07855280	    -13.57522348	     -6.46421635	     69.56434899	      1.21412693	     -4.10396866	      0.00000000	      0.00000000	      5.36895782	      3.64977301	     -1.19002394	     13.55198895	      0.23652683	     -1.00778754	      0.00000000	      0.00000000	     -5.99196973	     -4.59242465	     -6.50458410	     87.83686816	    -12.54821190	     65.67774930	     62.22898172	     84.21818317	      0.00000000	      0.00000000	     89.70059318	    -27.40523973	     64.93056880	     67.94618167	     80.67715750	      0.00000000	      0.00000000
      3.13500000	     -0.96510147	      0.22692263	      2.74073292	     -0.22455039	      1.04633326	     -1.00970880	      0.19313459	    -13.58575045	     -6.39174231	     69.49823263	      1.21297298	     -4.08872697	      0.00000000	      0.00000000	      5.56270513	      3.66526784	     -1.18523226	     13.66664322	      0.23852792	     -0.79526826	      0.00000000	      0.00000000	     -5.93345893	     -4.63174585	     -6.43630348	     87.85655472	    -12.54795930	     65.75361101	     62.11135749	     83.93534075	      0.00000000	      0.00000000	     89.70345553	    -27.36030714	     64.84524360	     67.87802805	     81.71017761	      0.00000000	      0.00000000
      3.14000000	     -0.96059641	      0.19583780	      2.70544660	     -0.22481806	      1.04623069	     -1.00966356	      0.16599036	    -13.56596554	     -6.37992189	     69.42354831	      1.21166950	     -4.15487298	      0.00000000	      0.00000000	      5.63860660	      3.62338530	     -1.27803228	     13.80517849	      0.24094582	     -0.87312343	      0.00000000	      0.00000000	     -5.97893278	     -4.61801356	     -6.38646280	     87.86665762	    -12.54879810	     65.64638484	     62.18718601	     84.14895488	      0.00000000	      0.00000000	     89.70386899	    -27.33711715	     64.84816374	     67.90088544	     80.74746089	      0.00000000	      0.00000000
      3.14500000	     -0.80550731	      0.34214935	      2.42780701	     -0.22456307	      1.04640627	     -1.00953536	     -0.01220701	    -13.74001290	     -6.12055394	     69.28275855	      1.20921225	     -4.08061589	      0.00000000	      0.00000000	      5.40278836	      3.77479897	     -1.55078547	     13.70330474	      0.23916779	     -0.81048877	      0.00000000	      0.00000000	     -6.13167179	     -4.79744378	     -6.14562686	     87.85593118	    -12.54497640	     65.63968444	     62.19668816	     84.19043217	      0.00000000	      0.00000000	     89.70319400	    -27.35632913	     64.85062453	     67.86514296	     81.03608892	      0.00000000	      0.00000000
      3.15000000	     -0.88065210	      0.32205834	      2.35456731	     -0.22493832	      1.04619701	     -1.00938992	      0.09516587	    -13.72022660	     -6.03004848	     69.23349064	      1.20835236	     -4.00857769	      0.00000000	      0.00000000	      5.57743582	      3.74216041	     -1.68931722	     13.85980499	      0.24189923	     -0.81233117	      0.00000000	      0.00000000	     -6.10098215	     -4.80473378	     -6.11388417	     87.87881352	    -12.48236072	     65.63166758	     62.19624270	     84.10983953	      0.00000000	      0.00000000	     89.70435534	    -27.40172386	     64.77629997	     67.87532193	     81.27955868	      0.00000000	      0.00000000
      3.15500000	     -0.86530550	      0.29068303	      2.31917035	     -0.22525720	      1.04606372	     -1.00929687	      0.06121893	    -13.69328411	     -5.99933208	     69.11684593	      1.20631653	     -4.02400461	      0.00000000	      0.00000000	      5.64181656	      3.70355367	     -1.70875197	     13.99117536	      0.24419208	     -0.72362588	      0.00000000	      0.00000000	     -6.16385073	     -4.78961736	     -6.09355089	     87.90984406	    -12.42208872	     65.60888000	     62.09787642	     84.14555073	      0.00000000	      0.00000000	     89.70766336	    -27.40733696	     64.70414583	     67.84041237	     81.26211549	      0.00000000	      0.00000000
      3.16000000	     -0.90741744	      0.26003448	      2.28394879	     -0.22560820	      1.04590454	     -1.00917880	      0.10868454	    -13.65390041	     -5.94409901	     69.05846594	      1.20529761	     -3.97593012	      0.00000000	      0.00000000	      5.75112970	      3.67127054	     -1.68760077	     14.06714187	      0.24551794	     -0.62188374	      0.00000000	      0.00000000	     -6.16965921	     -4.78395266	     -6.06152383	     87.91382835	    -12.41975120	     65.59344160	     62.11305887	     84.12306311	      0.00000000	      0.00000000	     89.71030721	    -27.38963375	     64.65016477	     67.76766100	     81.31505221	      0.00000000	      0.00000000
      3.16500000	     -0.95408611	      0.24454722	      2.30661772	     -0.22587663	      1.04569027	     -1.00917629	      0.10084878	    -13.62507890	     -5.97746920	     68.94279238	      1.20327872	     -4.26121114	      0.00000000	      0.00000000	      5.88091981	      3.65843030	     -1.66731121	     14.20627917	      0.24794635	     -0.47792252	      0.00000000	      0.00000000	     -6.16934419	     -4.77981454	     -6.14000240	     87.94355009	    -12.30627378	     65.58404398	     61.95757993	     84.23522737	      0.00000000	      0.00000000	     89.71195875	    -27.48649596	     64.60090376	     67.86426455	     80.99761623	      0.00000000	      0.00000000
      3.17000000	     -0.96083961	      0.21386570	      2.28515410	     -0.22613424	      1.04554986	     -1.00911200	      0.09170536	    -13.58333697	     -5.93916517	     68.86556816	      1.20193091	     -4.28920965	      0.00000000	      0.00000000	      5.94441494	      3.62422813	     -1.65149068	     14.28463493	      0.24931391	     -0.40893128	      0.00000000	      0.00000000	     -6.19934310	     -4.77210945	     -6.10658718	     87.94316974	    -12.31739380	     65.53155056	     61.98036583	     84.28085917	      0.00000000	      0.00000000	     89.71402312	    -27.44531942	     64.57978420	     67.80538887	     80.69238068	      0.00000000	      0.00000000
      3.17500000	     -1.16473177	      0.03715702	      2.40834079	     -0.22701184	      1.04513704	     -1.00896033	      0.32828963	    -13.35748360	     -5.99775273	     68.82671089	      1.20125272	     -4.35764123	      0.00000000	      0.00000000	      6.37343017	      3.43101956	     -1.53350309	     14.60147916	      0.25484389	     -0.24099784	      0.00000000	      0.00000000	     -6.07485684	     -4.60506761	     -6.24547057	     87.97440377	    -12.21575284	     65.49729953	     61.86257733	     84.13229171	      0.00000000	      0.00000000	     89.71791519	    -27.48510739	     64.49519871	     67.81425153	     81.20026308	      0.00000000	      0.00000000
      3.18000000	     -1.17438712	      0.03743668	      2.33420512	     -0.22727230	      1.04501356	     -1.00880179	      0.34367969	    -13.34788446	     -5.91652063	     68.74520850	      1.19983023	     -4.29042362	      0.00000000	      0.00000000	      6.44893525	      3.41379092	     -1.59829966	     14.70178929	      0.25659463	     -0.20347620	      0.00000000	      0.00000000	     -6.10283331	     -4.63845808	     -6.17679203	     87.97952657	    -12.21364851	     65.47935207	     61.87460804	     84.15227756	      0.00000000	      0.00000000	     89.71911646	    -27.48286478	     64.48067640	     67.81456918	     81.07304605	      0.00000000	      0.00000000
